<?xml version="1.0"?>
<svg version="1.1" xmlns="http://www.w3.org/2000/svg" width="400" height="56" style=""><path fill="#1a1819" d="M38.1,44.1l0-17.5l-1.05,2.625l-5.425,11.025l-2.8,0.175l-5.425-11.375l-0.875-2.45l0,17.5l3.325,0.7l0,2.1l-9.45,0l0-2.1l2.975-0.7l0-18.9l-2.975-0.7l0-1.925l7.875-0.175l6.335,14l6.615-13.825l7.35-0.175l0,2.1l-2.975,0.7l0,18.9l2.975,0.7l0,2.1l-9.8,0l0-2.1z M67.626,35.35l0,4.2c0,4.9-3.325,7.7-8.575,7.7c-5.775,0-8.225-2.975-8.225-7.175s4.725-6.475,4.725-6.475s-4.13-1.085-4.13-5.25c0-4.34,3.185-6.3,8.155-6.3c3.08,0,6.65,1.4,6.65,1.4l-0.175,4.9l-2.24,0l-0.735-2.8s-1.4-0.525-3.85-0.525c-2.8,0-4.2,1.4-4.2,3.5c0,2.45,2.1,4.025,4.55,4.025l10.85,0l0,2.1z M64.126,35.35l-4.725,0c-2.625,0-4.9,1.925-4.9,4.55c0,2.975,1.925,4.375,4.9,4.375s4.725-1.575,4.725-4.55l0-4.375z M78.602,44.1l0-18.9l-2.975-0.7l0-1.925l6.65-0.175l3.675,0c5.25,0,8.05,2.8,8.05,7.175c0,5.425-3.5,8.225-9.45,8.225l-2.275,0l0,6.3l2.975,0.7l0,2.1l-9.625,0l0-2.1z M82.277,35l2.275,0c3.85,0,5.775-1.75,5.775-4.9c0-2.8-1.575-4.9-4.55-4.9l-3.5,0l0,9.8z"/><path fill="#141314" d="M105.428,35.035l0.42,2.205s0.945,0.525,2.31,0.525c1.533,0,3.213-0.756,3.213-2.247c0-3.234-7.581-1.89-7.581-6.909c0-2.94,2.352-4.179,4.977-4.179c1.995,0,4.431,0.84,4.431,0.84l-0.105,3.57l-1.365,0l-0.714-2.247s-1.071-0.378-2.226-0.378c-1.89,0-2.793,0.987-2.793,2.037c0,3.192,7.56,1.974,7.56,6.699c0,3.15-2.541,4.599-5.481,4.599c-2.205,0-4.326-0.84-4.326-0.84l0-3.675l1.68,0z M126.2516,24.64l-6.951,14.7l-2.205,0l6.951-14.7l2.205,0z M131.0522,39.34l0-1.26l2.1-0.42l0-11.34l-2.73,0l-0.525,2.1l-1.365,0l0-3.78l11.445,0l0,3.78l-1.365,0l-0.525-2.1l-2.73,0l0,11.34l2.1,0.42l0,1.26l-6.405,0z M143.4548,37.681l4.788-12.936l2.1-0.105l4.662,13.041l1.743,0.399l0,1.26l-6.09,0l0-1.26l1.953-0.399l-0.798-2.331l-5.46,0l-0.819,2.331l1.974,0.399l0,1.26l-5.775,0l0-1.26z M151.2458,33.67l-2.121-6.321l-2.205,6.321l4.326,0z M169.6334,29.05l-0.567-2.415s-1.113-0.42-2.688-0.42c-2.835,0-4.41,2.1-4.41,5.985c0,3.78,1.89,5.46,4.515,5.46c2.205,0,4.2-1.68,4.2-1.68l0.84,1.365s-2.1,2.205-5.25,2.205c-4.2,0-6.72-2.52-6.72-7.245c0-4.83,2.73-7.875,7.035-7.875c2.31,0,4.725,1.05,4.725,1.05l-0.105,3.57l-1.575,0z M185.039,29.05l-0.567-2.415s-1.113-0.42-2.688-0.42c-2.835,0-4.41,2.1-4.41,5.985c0,3.78,1.89,5.46,4.515,5.46c2.205,0,4.2-1.68,4.2-1.68l0.84,1.365s-2.1,2.205-5.25,2.205c-4.2,0-6.72-2.52-6.72-7.245c0-4.83,2.73-7.875,7.035-7.875c2.31,0,4.725,1.05,4.725,1.05l-0.105,3.57l-1.575,0z"/></svg>
